<svg xmlns="http://www.w3.org/2000/svg" width="19" height="26" fill="none"><g clip-path="url(#a)"><path fill="#34A853" d="M5.239 19.26a26.255 26.255 0 0 1 2.146 3.021c.547.99.775 1.663 1.175 2.856.245.66.467.856.944.856.519 0 .755-.335.937-.852.378-1.127.674-1.988 1.142-2.8.919-1.57 2.06-2.964 3.181-4.304.304-.38 2.266-2.59 3.15-4.333 0 0 1.086-1.915 1.086-4.59 0-2.502-1.071-4.238-1.071-4.238l-3.083.789-1.873 4.707-.463.65-.093.117-.123.147-.216.236-.31.294-1.667 1.297-4.169 2.298-.693 3.85Z"/><path fill="#FBBC04" d="M.936 13.382c1.018 2.218 2.98 4.168 4.307 5.88l7.05-7.973s-.992 1.24-2.794 1.24C7.492 12.53 5.87 11 5.87 9.07c0-1.323.834-2.231.834-2.231L1.918 8.063l-.982 5.319Z"/><path fill="#4285F4" d="M12.373.41c2.341.72 4.346 2.234 5.558 4.465l-5.635 6.41s.834-.926.834-2.24c0-1.974-1.742-3.449-3.623-3.449-1.779 0-2.8 1.238-2.8 1.238V2.796L12.373.41Z"/><path fill="#1A73E8" d="M2.228 3.242A9.582 9.582 0 0 1 9.48 0c1.646 0 2.887.413 2.887.413L6.7 6.838H2.687l-.46-3.596Z"/><path fill="#EA4335" d="M.936 13.382S0 11.632 0 9.097c0-2.395.976-4.49 2.228-5.855l4.476 3.596-5.768 6.544Z"/></g><defs><clipPath id="a"><path fill="#fff" d="M0 0h19v26H0z"/></clipPath></defs></svg>