<svg width="140" height="29" viewBox="0 0 140 29" fill="none" xmlns="http://www.w3.org/2000/svg">
<g clip-path="url(#clip0_606_7)">
<mask id="mask0_606_7" style="mask-type:luminance" maskUnits="userSpaceOnUse" x="0" y="0" width="140" height="29">
<path d="M140 0H0V29H140V0Z" fill="white"/>
</mask>
<g mask="url(#mask0_606_7)">
<path d="M24.9882 7.74219C24.3431 8.30904 23.6025 8.73995 22.7666 9.03489C21.9306 9.32984 21.08 9.47684 20.2147 9.47588C19.3495 9.4749 18.5032 9.3308 17.6759 9.04354C16.8486 8.75625 16.1103 8.32296 15.4608 7.74362L12.4113 5.04151C11.9277 4.60726 11.3791 4.28155 10.7654 4.06443C10.1528 3.8473 9.52391 3.73872 8.87876 3.73872C8.23364 3.73872 7.60476 3.8473 6.99215 4.06443C6.37955 4.28155 5.83199 4.60726 5.34949 5.04151L2.86274 7.2176L1.70312 6.18864L4.15897 3.98517C4.81171 3.41062 5.549 2.97972 6.37086 2.69246C7.19491 2.4052 8.02979 2.26157 8.87551 2.26157C9.72342 2.26157 10.5529 2.4052 11.3639 2.69246C12.1749 2.97972 12.9079 3.41062 13.5628 3.98517L16.6123 6.68728C17.1262 7.14843 17.6884 7.48664 18.2989 7.70182C18.9093 7.91799 19.5479 8.02609 20.2147 8.02609C20.8826 8.02609 21.5169 7.91752 22.1176 7.70039C22.7194 7.48326 23.2789 7.14556 23.796 6.68728L26.2828 4.51116L27.4441 5.54013L24.9882 7.74219ZM24.9882 14.1177C24.3377 14.6923 23.5977 15.1232 22.7682 15.4105C21.9387 15.6977 21.0908 15.8414 20.2245 15.8414C19.3582 15.8414 18.5103 15.6977 17.6808 15.4105C16.8514 15.1232 16.1114 14.6923 15.4608 14.1177L12.4113 11.4156C11.9277 10.9814 11.3796 10.6557 10.767 10.4385C10.1533 10.2214 9.52391 10.1128 8.87876 10.1128C8.23364 10.1128 7.60476 10.2214 6.99215 10.4385C6.38062 10.6557 5.83309 10.9814 5.34949 11.4156L2.86274 13.5918L1.70312 12.5988L4.15897 10.3593C4.81171 9.78474 5.549 9.35384 6.37086 9.06658C7.19491 8.77932 8.02979 8.63568 8.87551 8.63568C9.72342 8.63568 10.5529 8.77932 11.3639 9.06658C12.1749 9.35384 12.9079 9.78474 13.5628 10.3593L16.6123 13.0614C17.1197 13.5226 17.6754 13.8608 18.2793 14.076C18.8822 14.2921 19.517 14.4002 20.1838 14.4002C20.8507 14.4002 21.4904 14.2917 22.103 14.0745C22.7156 13.8574 23.2799 13.5197 23.796 13.0614L26.2828 10.8853L27.4423 11.9143L24.9882 14.1177ZM24.9475 20.4919C24.2981 21.0664 23.5651 21.4973 22.7487 21.7846C21.9322 22.0718 21.0908 22.2155 20.2245 22.2155C19.3582 22.2155 18.5103 22.0675 17.6808 21.7716C16.8492 21.4738 16.1092 21.0381 15.4608 20.4645L12.3706 17.7898C11.8871 17.3555 11.3384 17.0298 10.7247 16.8127C10.1121 16.5955 9.48326 16.487 8.83812 16.487C8.19297 16.487 7.56412 16.5955 6.9515 16.8127C6.33888 17.0298 5.79135 17.3555 5.30884 17.7898L2.82207 19.9659L1.70312 18.9729L4.15897 16.7334C4.80736 16.1589 5.54088 15.728 6.35949 15.4407C7.17703 15.1534 8.00649 15.0098 8.84787 15.0098C9.7012 15.0098 10.5361 15.1534 11.3525 15.4407C12.1679 15.7289 12.9046 16.1598 13.5628 16.7334L16.6123 19.4355C17.1295 19.8938 17.689 20.2315 18.2907 20.4487C18.8925 20.6658 19.5268 20.7743 20.1936 20.7743C20.8604 20.7743 21.4991 20.6663 22.1095 20.4501C22.7199 20.2339 23.2821 19.8957 23.796 19.4355L26.2828 17.2594L27.4033 18.2884L24.9475 20.4919Z" fill="#333121" fill-opacity="0.98"/>
<path d="M47.0635 12.1027C47.0635 13.0458 46.9425 13.9556 46.7003 14.832C46.4674 15.699 46.1319 16.5135 45.694 17.2756C45.256 18.0283 44.7343 18.7189 44.1285 19.3477C43.5229 19.9669 42.8474 20.5004 42.1019 20.9482C41.3563 21.396 40.5551 21.7437 39.6979 21.9914C38.8499 22.2295 37.9648 22.3486 37.0424 22.3486H31.0044V1.85666H37.0424C37.9648 1.85666 38.8499 1.98051 39.6979 2.2282C40.5551 2.46637 41.3563 2.80932 42.1019 3.25709C42.8474 3.70484 43.5229 4.24309 44.1285 4.87186C44.7343 5.4911 45.256 6.18178 45.694 6.94392C46.1319 7.69654 46.4674 8.51107 46.7003 9.38753C46.9425 10.2544 47.0635 11.1595 47.0635 12.1027ZM43.0522 12.1027C43.0522 11.2548 42.894 10.4593 42.577 9.71619C42.2697 8.97313 41.8409 8.32531 41.2913 7.77274C40.7508 7.21067 40.1125 6.76769 39.3763 6.44377C38.6495 6.11987 37.8717 5.95792 37.0424 5.95792H35.0436V18.2474H37.0424C37.8717 18.2474 38.6495 18.0902 39.3763 17.7758C40.1125 17.4519 40.7508 17.0137 41.2913 16.4611C41.8409 15.899 42.2697 15.2465 42.577 14.5034C42.894 13.7508 43.0522 12.9505 43.0522 12.1027ZM61.5296 14.1604V10.0592C61.5296 9.4971 61.4224 8.96836 61.2082 8.47297C61.0032 7.96805 60.719 7.52983 60.3557 7.15828C59.9922 6.78674 59.5636 6.49618 59.0697 6.28658C58.5852 6.06746 58.0681 5.95792 57.5183 5.95792C56.9687 5.95792 56.4467 6.06746 55.953 6.28658C55.4685 6.49618 55.0443 6.78674 54.6811 7.15828C54.3175 7.52983 54.0287 7.96805 53.8145 8.47297C53.6095 8.96836 53.5069 9.4971 53.5069 10.0592V14.1604H61.5296ZM65.5409 22.3486H61.5296V18.2474H53.5069V22.3486H49.5096V10.0592C49.5096 8.92548 49.7191 7.86325 50.1386 6.87249C50.5578 5.87217 51.1261 5.00047 51.8438 4.25741C52.5706 3.51431 53.4184 2.92841 54.3875 2.49972C55.366 2.07101 56.4095 1.85666 57.5183 1.85666C58.6271 1.85666 59.6661 2.07101 60.6352 2.49972C61.6137 2.92841 62.4661 3.51431 63.1929 4.25741C63.9198 5.00047 64.4928 5.87217 64.912 6.87249C65.3315 7.86325 65.5409 8.92548 65.5409 10.0592V22.3486ZM76.8203 22.3486H72.823V5.95792H66.7989V1.85666H82.8304V5.95792H76.8203V22.3486ZM100.315 20.248C99.3835 21.0673 98.34 21.696 97.1846 22.1343C96.0292 22.5725 94.8319 22.7916 93.5925 22.7916C92.6421 22.7916 91.7243 22.663 90.839 22.4058C89.9631 22.1581 89.1385 21.8056 88.3651 21.3483C87.6011 20.8815 86.9021 20.3242 86.2687 19.6764C85.6351 19.0286 85.0899 18.3141 84.6332 17.5329C84.1862 16.7421 83.8367 15.899 83.5851 15.0035C83.3428 14.0985 83.2218 13.1601 83.2218 12.1884C83.2218 11.2167 83.3428 10.2783 83.5851 9.37325C83.8367 8.46821 84.1862 7.62508 84.6332 6.84389C85.0899 6.05317 85.6351 5.33392 86.2687 4.6861C86.9021 4.03828 87.6011 3.48574 88.3651 3.02844C89.1385 2.56164 89.9631 2.20439 90.839 1.95669C91.7243 1.69947 92.6421 1.57086 93.5925 1.57086C94.8319 1.57086 96.0292 1.78997 97.1846 2.2282C98.34 2.65691 99.3835 3.28567 100.315 4.11448L98.1909 7.68702C97.6038 7.0392 96.9098 6.5438 96.1083 6.20083C95.3071 5.84836 94.4684 5.6721 93.5925 5.6721C92.7072 5.6721 91.8781 5.8436 91.1047 6.18654C90.3314 6.52952 89.6558 6.99631 89.0779 7.58698C88.5002 8.1681 88.0437 8.8588 87.7083 9.65904C87.3729 10.4498 87.205 11.2929 87.205 12.1884C87.205 13.0839 87.3729 13.927 87.7083 14.7177C88.0437 15.4989 88.5002 16.1848 89.0779 16.7755C89.6558 17.3662 90.3314 17.8329 91.1047 18.1759C91.8781 18.5189 92.7072 18.6904 93.5925 18.6904C94.4684 18.6904 95.3071 18.5189 96.1083 18.1759C96.9098 17.8234 97.6038 17.3233 98.1909 16.6755L100.315 20.248ZM106.661 22.3486H102.65V1.85666H106.661V10.0592H114.669V1.85666H118.681V22.3486H114.669V14.1604H106.661V22.3486ZM134.209 14.1604V10.0592C134.209 9.4971 134.102 8.96836 133.888 8.47297C133.683 7.96805 133.399 7.52983 133.035 7.15828C132.672 6.78674 132.243 6.49618 131.749 6.28658C131.265 6.06746 130.748 5.95792 130.198 5.95792C129.648 5.95792 129.126 6.06746 128.632 6.28658C128.148 6.49618 127.724 6.78674 127.361 7.15828C126.997 7.52983 126.708 7.96805 126.494 8.47297C126.289 8.96836 126.186 9.4971 126.186 10.0592V14.1604H134.209ZM138.22 22.3486H134.209V18.2474H126.186V22.3486H122.189V10.0592C122.189 8.92548 122.399 7.86325 122.818 6.87249C123.237 5.87217 123.806 5.00047 124.523 4.25741C125.25 3.51431 126.098 2.92841 127.067 2.49972C128.045 2.07101 129.089 1.85666 130.198 1.85666C131.307 1.85666 132.346 2.07101 133.315 2.49972C134.293 2.92841 135.146 3.51431 135.872 4.25741C136.599 5.00047 137.172 5.87217 137.591 6.87249C138.011 7.86325 138.22 8.92548 138.22 10.0592V22.3486Z" fill="#333121" fill-opacity="0.98"/>
<path d="M29.0964 22.1914C28.9225 22.1914 28.7732 22.1776 28.6477 22.1499C28.5223 22.1213 28.419 22.0793 28.3376 22.0239C28.2556 21.9676 28.1931 21.8979 28.151 21.8147C28.0924 21.722 28.0477 21.6108 28.0162 21.4808C27.985 21.35 27.9595 21.1985 27.9399 21.0261L28.0544 21.0054C28.0646 21.0954 28.076 21.179 28.0885 21.2561C28.1013 21.3323 28.1159 21.402 28.1317 21.4652C28.1471 21.5285 28.1645 21.5852 28.184 21.6354C28.2035 21.6848 28.2254 21.7277 28.2501 21.764C28.284 21.8212 28.3318 21.8701 28.3935 21.9108C28.4547 21.9515 28.5299 21.984 28.6196 22.0083C28.7097 22.0325 28.8146 22.0477 28.9348 22.0537V22.0433C28.878 22.0113 28.8278 21.9697 28.7836 21.9186C28.7396 21.8667 28.705 21.8069 28.6795 21.7394C28.6532 21.6718 28.6402 21.5977 28.6402 21.5172C28.6402 21.3985 28.6647 21.299 28.7138 21.2184C28.762 21.137 28.8333 21.0755 28.9272 21.0339C29.0204 20.9924 29.1338 20.9716 29.2679 20.9716C29.405 20.9716 29.5252 20.9941 29.6285 21.0391C29.7311 21.0842 29.8107 21.1517 29.8674 21.2418C29.9234 21.331 29.9515 21.4427 29.9515 21.577C29.9515 21.6861 29.9299 21.7796 29.8867 21.8576C29.8424 21.9355 29.7821 21.9992 29.7048 22.0485C29.627 22.097 29.5364 22.133 29.4328 22.1563C29.3288 22.1797 29.2166 22.1914 29.0964 22.1914ZM29.8396 21.5666C29.8396 21.4626 29.8172 21.3769 29.7722 21.3094C29.7264 21.2418 29.6616 21.1916 29.5778 21.1586C29.4932 21.1257 29.3928 21.1093 29.2767 21.1093C29.1047 21.1093 28.9746 21.1452 28.8866 21.2171C28.7976 21.289 28.7531 21.3942 28.7531 21.5328C28.7531 21.6133 28.7677 21.6865 28.7963 21.7523C28.8252 21.8182 28.865 21.8766 28.9158 21.9277C28.9657 21.978 29.0235 22.0212 29.0886 22.0576C29.1828 22.0576 29.2746 22.0503 29.3644 22.0355C29.4534 22.0208 29.5338 21.9953 29.6059 21.9589C29.6777 21.9225 29.735 21.8727 29.7774 21.8095C29.8188 21.7454 29.8396 21.6644 29.8396 21.5666ZM28.5208 20.0934C28.5208 19.9384 28.5588 19.8223 28.635 19.7452C28.7112 19.6681 28.8328 19.6296 28.9996 19.6296H29.926V19.7309L29.6845 19.7543V19.7621C29.7363 19.7924 29.7823 19.8292 29.8229 19.8726C29.8627 19.9158 29.8942 19.9691 29.9171 20.0323C29.94 20.0947 29.9515 20.1709 29.9515 20.261C29.9515 20.3519 29.9366 20.4299 29.907 20.4948C29.8773 20.5589 29.8341 20.6087 29.7774 20.6442C29.7206 20.6789 29.6514 20.6962 29.5702 20.6962C29.4328 20.6962 29.3288 20.6382 29.2577 20.5221C29.1856 20.4061 29.145 20.2393 29.1357 20.0219L29.1229 19.7595H29.0225C28.8812 19.7595 28.7802 19.7881 28.7201 19.8453C28.66 19.9024 28.6301 19.9869 28.6301 20.0986C28.6301 20.1713 28.6392 20.2415 28.6579 20.309C28.6756 20.3757 28.7016 20.4437 28.7354 20.513L28.6288 20.5546C28.5973 20.487 28.5715 20.4147 28.5512 20.3376C28.5309 20.2597 28.5208 20.1783 28.5208 20.0934ZM29.2234 19.7608L29.2335 20.0077C29.2418 20.1869 29.2733 20.3233 29.3275 20.4169C29.3818 20.5104 29.463 20.5572 29.5715 20.5572C29.6587 20.5572 29.7256 20.5295 29.7722 20.474C29.8188 20.4177 29.8422 20.3398 29.8422 20.2402C29.8422 20.0852 29.799 19.967 29.7126 19.8855C29.6262 19.8033 29.5083 19.7617 29.3592 19.7608H29.2234ZM28.5182 18.8515C28.5182 18.7545 28.5322 18.6717 28.5601 18.6033C28.5879 18.5349 28.6288 18.483 28.6821 18.4474C28.7347 18.4111 28.7984 18.3929 28.8739 18.3929C28.9535 18.3929 29.0196 18.4145 29.0722 18.4578C29.1237 18.5011 29.1606 18.5622 29.1828 18.641H29.1903C29.2046 18.5752 29.2275 18.5202 29.259 18.476C29.2902 18.431 29.3295 18.3972 29.3772 18.3747C29.4237 18.3522 29.4773 18.3409 29.5385 18.3409C29.6231 18.3409 29.6964 18.363 29.7581 18.4072C29.8201 18.4505 29.8679 18.5124 29.9018 18.5929C29.9348 18.6735 29.9515 18.7701 29.9515 18.8827C29.9515 18.945 29.9476 19.0039 29.94 19.0593C29.9322 19.1148 29.9218 19.165 29.9083 19.21C29.8937 19.2542 29.8781 19.2927 29.8612 19.3256H29.7355C29.7685 19.2624 29.7943 19.194 29.8128 19.1204C29.8315 19.0459 29.8409 18.9666 29.8409 18.8827C29.8409 18.803 29.8294 18.7324 29.8065 18.6709C29.7836 18.6094 29.7493 18.5609 29.7037 18.5254C29.6579 18.4899 29.6002 18.4721 29.5307 18.4721C29.4649 18.4721 29.4112 18.4881 29.3706 18.5202C29.3293 18.5522 29.2991 18.5994 29.2806 18.6618C29.2611 18.7242 29.2512 18.8012 29.2512 18.893V19.0827H29.1406V18.9073C29.1406 18.7895 29.1201 18.6956 29.0784 18.6254C29.036 18.5553 28.9704 18.5202 28.8814 18.5202C28.7995 18.5202 28.737 18.5492 28.6948 18.6072C28.6517 18.6644 28.6301 18.7475 28.6301 18.8567C28.6301 18.9337 28.6389 19.0026 28.6566 19.0632C28.6735 19.1238 28.6964 19.1862 28.7253 19.2503L28.6173 19.2984C28.5876 19.2325 28.564 19.1637 28.546 19.0918C28.5275 19.0191 28.5182 18.9389 28.5182 18.8515ZM28.5208 17.4796C28.5208 17.3246 28.5588 17.2085 28.635 17.1314C28.7112 17.0544 28.8328 17.0158 28.9996 17.0158H29.926V17.1172L29.6845 17.1405V17.1483C29.7363 17.1786 29.7823 17.2155 29.8229 17.2588C29.8627 17.3021 29.8942 17.3553 29.9171 17.4185C29.94 17.4809 29.9515 17.5571 29.9515 17.6472C29.9515 17.7381 29.9366 17.8161 29.907 17.881C29.8773 17.9451 29.8341 17.9949 29.7774 18.0304C29.7206 18.0651 29.6514 18.0824 29.5702 18.0824C29.4328 18.0824 29.3288 18.0244 29.2577 17.9083C29.1856 17.7922 29.145 17.6255 29.1357 17.4082L29.1229 17.1457H29.0225C28.8812 17.1457 28.7802 17.1743 28.7201 17.2315C28.66 17.2886 28.6301 17.3731 28.6301 17.4848C28.6301 17.5576 28.6392 17.6277 28.6579 17.6953C28.6756 17.7619 28.7016 17.8299 28.7354 17.8992L28.6288 17.9408C28.5973 17.8732 28.5715 17.8009 28.5512 17.7238C28.5309 17.6459 28.5208 17.5645 28.5208 17.4796ZM29.2234 17.147L29.2335 17.3939C29.2418 17.5732 29.2733 17.7096 29.3275 17.8031C29.3818 17.8966 29.463 17.9434 29.5715 17.9434C29.6587 17.9434 29.7256 17.9157 29.7722 17.8603C29.8188 17.804 29.8422 17.726 29.8422 17.6264C29.8422 17.4714 29.799 17.3532 29.7126 17.2718C29.6262 17.1895 29.5083 17.1479 29.3592 17.147H29.2234ZM28.8814 14.8126C28.9689 14.8126 29.0373 14.836 29.0873 14.8827C29.1372 14.9286 29.1713 14.9897 29.189 15.0659H29.1966C29.2101 14.9732 29.2444 14.8987 29.2996 14.8424C29.3537 14.7853 29.4318 14.7567 29.5333 14.7567C29.6137 14.7567 29.6832 14.7749 29.7417 14.8113C29.8003 14.8476 29.8456 14.9035 29.8776 14.9789C29.9098 15.0533 29.926 15.149 29.926 15.266V15.87H28.5447V15.2815C28.5447 15.1776 28.558 15.091 28.5843 15.0217C28.6095 14.9524 28.6472 14.9005 28.6972 14.8658C28.7464 14.8303 28.8078 14.8126 28.8814 14.8126ZM29.5333 14.8931C29.4341 14.8931 29.3631 14.9273 29.3199 14.9957C29.2767 15.0641 29.2551 15.1646 29.2551 15.2971V15.7375H29.8167V15.2893C29.8167 15.1568 29.7938 15.0577 29.748 14.9918C29.7014 14.926 29.6298 14.8931 29.5333 14.8931ZM28.8916 14.9464C28.8187 14.9464 28.7617 14.9728 28.7201 15.0256C28.6777 15.0785 28.6566 15.1681 28.6566 15.2945V15.7375H29.1419V15.3075C29.1419 15.1828 29.1214 15.0914 29.0797 15.0334C29.0373 14.9754 28.9746 14.9464 28.8916 14.9464ZM28.5447 14.2332H29.926V14.3644H28.5447V14.2332ZM28.0339 14.2968C28.0339 14.2639 28.0438 14.2397 28.0633 14.2241C28.0818 14.2085 28.1073 14.2007 28.1395 14.2007C28.1715 14.2007 28.197 14.2085 28.2158 14.2241C28.2343 14.2397 28.2436 14.2639 28.2436 14.2968C28.2436 14.328 28.2343 14.3514 28.2158 14.367C28.197 14.3826 28.1715 14.3904 28.1395 14.3904C28.1073 14.3904 28.0818 14.3826 28.0633 14.367C28.0438 14.3514 28.0339 14.328 28.0339 14.2968ZM28.5447 12.7951H29.8128V12.6054H30.3936V12.734H29.926V13.8149H30.3936V13.9422H29.8128V13.8473C29.7053 13.7677 29.5853 13.701 29.4534 13.6473C29.3212 13.5936 29.1789 13.5529 29.0264 13.5252C28.8731 13.4966 28.7125 13.4814 28.5447 13.4797V12.7951ZM28.6527 12.9237V13.3602C28.8044 13.3671 28.9496 13.3844 29.0886 13.4121C29.2267 13.4399 29.3566 13.478 29.4786 13.5265C29.5999 13.575 29.7113 13.6339 29.8128 13.7031V12.9237H28.6527ZM28.5447 11.1816H29.926V11.3128H28.6579V12.1754H29.926V12.3079H28.5447V11.1816ZM29.2335 9.53693C29.3402 9.53693 29.4375 9.55037 29.5257 9.57721C29.6129 9.60406 29.6884 9.64389 29.7519 9.69673C29.8154 9.74957 29.8646 9.81539 29.8992 9.89419C29.934 9.97212 29.9515 10.0631 29.9515 10.167C29.9515 10.2657 29.9346 10.3536 29.9005 10.4307C29.8659 10.5078 29.8167 10.5732 29.7532 10.6269C29.6897 10.6797 29.6142 10.72 29.527 10.7477C29.4388 10.7754 29.341 10.7893 29.2335 10.7893C29.0852 10.7893 28.9577 10.7641 28.851 10.7139C28.7435 10.6628 28.6613 10.5901 28.6046 10.4957C28.547 10.4004 28.5182 10.2865 28.5182 10.154C28.5182 10.0172 28.5486 9.90329 28.6095 9.81235C28.6699 9.72054 28.7537 9.65168 28.8611 9.60579C28.9689 9.55989 29.093 9.53693 29.2335 9.53693ZM29.2335 10.6542C29.3545 10.6542 29.4604 10.6364 29.5512 10.6009C29.6418 10.5654 29.7126 10.5117 29.7633 10.4398C29.8141 10.3671 29.8396 10.2753 29.8396 10.1644C29.8396 10.051 29.8141 9.95783 29.7633 9.88509C29.7126 9.81235 29.6413 9.75864 29.5499 9.724C29.4583 9.68936 29.353 9.67204 29.2335 9.67204C29.1175 9.67204 29.0141 9.68851 28.9233 9.72142C28.8328 9.75433 28.7617 9.80629 28.7099 9.8773C28.6574 9.94831 28.6311 10.041 28.6311 10.1553C28.6311 10.319 28.6844 10.4433 28.7914 10.5281C28.8981 10.6121 29.0454 10.6542 29.2335 10.6542ZM28.5447 9.03678H29.0087C29.1247 9.03678 29.2093 9.00732 29.2627 8.94845C29.3152 8.88954 29.3415 8.80337 29.3415 8.68992C29.3415 8.59292 29.3267 8.50589 29.297 8.42882C29.2673 8.35086 29.2275 8.27637 29.1776 8.20536H28.5447V8.07416H29.926V8.20536H29.2895C29.3402 8.28243 29.38 8.35996 29.4089 8.43789C29.4375 8.51499 29.4521 8.60593 29.4521 8.7107C29.4521 8.86054 29.4146 8.97441 29.3402 9.05237C29.2647 9.12944 29.1593 9.168 29.0238 9.168H28.5447V9.03678ZM28.5447 7.47527H29.5372C29.5567 7.47527 29.5765 7.4757 29.5968 7.47658C29.6171 7.47658 29.6379 7.477 29.6592 7.47785C29.6803 7.47785 29.7011 7.47831 29.7214 7.47916C29.7417 7.48004 29.7615 7.48134 29.781 7.48307L28.5447 6.63994V6.47887H29.926V6.60357H28.9246C28.8994 6.60357 28.8731 6.60357 28.846 6.60357C28.8179 6.60272 28.7904 6.60184 28.7633 6.60096C28.7354 6.60011 28.7092 6.59923 28.6844 6.59838L29.926 7.4454V7.60258H28.5447V7.47527ZM28.5447 5.87219H29.1497V4.98231H28.5447V4.85109H29.926V4.98231H29.2627V5.87219H29.926V6.00468H28.5447V5.87219ZM28.5447 3.60915V3.45715L29.2158 4.09632L29.926 3.4182V3.58057L29.226 4.24571H29.926V4.37823H28.5447V4.24571H29.2158L28.5447 3.60915ZM28.5447 3.3909V3.25192L29.4217 2.90894C29.4732 2.88817 29.5211 2.86997 29.565 2.85438C29.6082 2.83793 29.648 2.82365 29.6845 2.81151C29.7201 2.79938 29.7527 2.78943 29.7823 2.78164V2.77384C29.7435 2.76086 29.6933 2.74351 29.6324 2.72188C29.5705 2.70022 29.5021 2.67553 29.4266 2.64782L28.5447 2.30876V2.16846L30.1851 2.81282C30.2648 2.844 30.3322 2.87819 30.3871 2.91544C30.443 2.95268 30.4849 2.99642 30.513 3.04665C30.5419 3.09689 30.5562 3.15749 30.5562 3.22853C30.5562 3.26056 30.5536 3.28959 30.5487 3.31556C30.5443 3.34155 30.5385 3.36667 30.5307 3.3909H30.4201C30.4269 3.36839 30.4326 3.34543 30.4368 3.32205C30.4417 3.29781 30.4443 3.27139 30.4443 3.24282C30.4443 3.19344 30.4342 3.151 30.4139 3.11551C30.3944 3.07911 30.3639 3.04665 30.3223 3.01808C30.2809 2.98948 30.2278 2.96263 30.1635 2.93752L29.9184 2.84139L28.5447 3.3909Z" fill="#333121" fill-opacity="0.98"/>
</g>
</g>
<defs>
<clipPath id="clip0_606_7">
<rect width="140" height="29" fill="white"/>
</clipPath>
</defs>
</svg>
