<svg width="195" height="41" viewBox="0 0 195 41" fill="none" xmlns="http://www.w3.org/2000/svg">
<g clip-path="url(#clip0_838_60)">
<mask id="mask0_838_60" style="mask-type:luminance" maskUnits="userSpaceOnUse" x="0" y="0" width="195" height="41">
<path d="M195 0H0V41H195V0Z" fill="white"/>
</mask>
<g mask="url(#mask0_838_60)">
<path d="M34.8046 10.9457C33.906 11.7471 32.8746 12.3564 31.7102 12.7733C30.5458 13.1903 29.361 13.3982 28.1558 13.3968C26.9507 13.3954 25.772 13.1917 24.6197 12.7856C23.4674 12.3794 22.4389 11.7668 21.5343 10.9478L17.2868 7.12754C16.6132 6.51359 15.8491 6.05311 14.9943 5.74614C14.141 5.43916 13.2651 5.28566 12.3665 5.28566C11.4679 5.28566 10.592 5.43916 9.73868 5.74614C8.88543 6.05311 8.12275 6.51359 7.45069 7.12754L3.98701 10.2041L2.37183 8.74933L5.79246 5.63408C6.70164 4.82179 7.72858 4.21259 8.87332 3.80646C10.0211 3.40033 11.184 3.19727 12.3619 3.19727C13.543 3.19727 14.6983 3.40033 15.8279 3.80646C16.9576 4.21259 17.9785 4.82179 18.8906 5.63408L23.1381 9.45431C23.854 10.1063 24.637 10.5844 25.4873 10.8887C26.3376 11.1943 27.2271 11.3471 28.1558 11.3471C29.0862 11.3471 29.9696 11.1936 30.8063 10.8866C31.6445 10.5797 32.4237 10.1022 33.1441 9.45431L36.6078 6.37773L38.2254 7.83247L34.8046 10.9457ZM34.8046 19.9594C33.8985 20.7717 32.8678 21.3809 31.7124 21.7871C30.5571 22.1932 29.3761 22.3963 28.1695 22.3963C26.9628 22.3963 25.7818 22.1932 24.6265 21.7871C23.4712 21.3809 22.4404 20.7717 21.5343 19.9594L17.2868 16.1392C16.6132 15.5253 15.8498 15.0648 14.9965 14.7578C14.1418 14.4509 13.2651 14.2973 12.3665 14.2973C11.4679 14.2973 10.592 14.4509 9.73868 14.7578C8.88691 15.0648 8.12427 15.5253 7.45069 16.1392L3.98701 19.2158L2.37183 17.812L5.79246 14.6458C6.70164 13.8335 7.72858 13.2243 8.87332 12.8181C10.0211 12.412 11.184 12.2089 12.3619 12.2089C13.543 12.2089 14.6983 12.412 15.8279 12.8181C16.9576 13.2243 17.9785 13.8335 18.8906 14.6458L23.1381 18.466C23.8449 19.118 24.6189 19.5961 25.4601 19.9004C26.2998 20.206 27.184 20.3588 28.1128 20.3588C29.0416 20.3588 29.9326 20.2053 30.7859 19.8983C31.6392 19.5913 32.4253 19.1139 33.1441 18.466L36.6078 15.3895L38.2229 16.8442L34.8046 19.9594ZM34.748 28.9712C33.8434 29.7834 32.8225 30.3926 31.6853 30.7988C30.5481 31.2049 29.3761 31.408 28.1695 31.408C26.9628 31.408 25.7818 31.1988 24.6265 30.7804C23.4681 30.3593 22.4374 29.7434 21.5343 28.9324L17.2302 25.1509C16.5566 24.537 15.7924 24.0765 14.9376 23.7695C14.0843 23.4625 13.2084 23.309 12.3098 23.309C11.4113 23.309 10.5353 23.4625 9.68206 23.7695C8.82877 24.0765 8.06613 24.537 7.39407 25.1509L3.93036 28.2275L2.37183 26.8237L5.79246 23.6575C6.69559 22.8452 7.71727 22.236 8.85748 21.8298C9.9962 21.4237 11.1515 21.2207 12.3234 21.2207C13.512 21.2207 14.6749 21.4237 15.8121 21.8298C16.9477 22.2374 17.9739 22.8466 18.8906 23.6575L23.1381 27.4777C23.8585 28.1256 24.6378 28.6031 25.476 28.91C26.3141 29.217 27.1976 29.3705 28.1264 29.3705C29.0552 29.3705 29.9447 29.2177 30.795 28.9121C31.6452 28.6065 32.4283 28.1283 33.1441 27.4777L36.6078 24.4011L38.1685 25.8559L34.748 28.9712Z" fill="#FFF5A8" fill-opacity="0.98"/>
<path d="M65.5522 17.1105C65.5522 18.4439 65.3836 19.7302 65.0462 20.9693C64.7218 22.1949 64.2546 23.3465 63.6446 24.424C63.0346 25.4881 62.3079 26.4645 61.4641 27.3535C60.6206 28.229 59.6797 28.9832 58.6413 29.6162C57.6028 30.2493 56.4869 30.7409 55.2929 31.0911C54.1117 31.4278 52.879 31.5962 51.5941 31.5962H43.1841V2.62477H51.5941C52.879 2.62477 54.1117 2.79986 55.2929 3.15005C56.4869 3.48677 57.6028 3.97163 58.6413 4.60468C59.6797 5.2377 60.6206 5.99868 61.4641 6.88763C62.3079 7.76311 63.0346 8.73959 63.6446 9.8171C64.2546 10.8811 64.7218 12.0327 65.0462 13.2719C65.3836 14.4975 65.5522 15.777 65.5522 17.1105ZM59.965 17.1105C59.965 15.9117 59.7446 14.7871 59.3031 13.7365C58.8751 12.686 58.2777 11.7701 57.5122 10.9889C56.7594 10.1942 55.8703 9.56794 54.8449 9.10998C53.8326 8.65206 52.7492 8.4231 51.5941 8.4231H48.8101V25.7978H51.5941C52.7492 25.7978 53.8326 25.5756 54.8449 25.1311C55.8703 24.6732 56.7594 24.0536 57.5122 23.2724C58.2777 22.4778 58.8751 21.5552 59.3031 20.5046C59.7446 19.4406 59.965 18.3092 59.965 17.1105ZM85.7013 20.0197V14.2214C85.7013 13.4268 85.552 12.6792 85.2537 11.9789C84.9681 11.265 84.5723 10.6455 84.0663 10.1202C83.56 9.59487 82.963 9.18408 82.2751 8.88776C81.6002 8.57796 80.88 8.4231 80.1141 8.4231C79.3486 8.4231 78.6215 8.57796 77.934 8.88776C77.2591 9.18408 76.6683 9.59487 76.1623 10.1202C75.6559 10.6455 75.2536 11.265 74.9553 11.9789C74.6697 12.6792 74.5269 13.4268 74.5269 14.2214V20.0197H85.7013ZM91.2886 31.5962H85.7013V25.7978H74.5269V31.5962H68.9592V14.2214C68.9592 12.6186 69.251 11.1168 69.8353 9.71611C70.4192 8.30187 71.2108 7.06946 72.2105 6.01892C73.2228 4.96834 74.4037 4.13999 75.7534 3.53391C77.1163 2.92781 78.5697 2.62477 80.1141 2.62477C81.6585 2.62477 83.1058 2.92781 84.4556 3.53391C85.8184 4.13999 87.0058 4.96834 88.0181 6.01892C89.0305 7.06946 89.8286 8.30187 90.4125 9.71611C90.9968 11.1168 91.2886 12.6186 91.2886 14.2214V31.5962ZM106.999 31.5962H101.431V8.4231H93.0407V2.62477H115.37V8.4231H106.999V31.5962ZM139.724 28.6263C138.426 29.7846 136.973 30.6735 135.364 31.2931C133.754 31.9127 132.087 32.2224 130.36 32.2224C129.037 32.2224 127.758 32.0406 126.525 31.677C125.305 31.3268 124.157 30.8284 123.079 30.1819C122.015 29.522 121.042 28.7341 120.159 27.8182C119.277 26.9023 118.518 25.8921 117.881 24.7877C117.259 23.6698 116.772 22.4778 116.421 21.2117C116.084 19.9322 115.915 18.6055 115.915 17.2317C115.915 15.8579 116.084 14.5312 116.421 13.2517C116.772 11.9721 117.259 10.7801 117.881 9.67567C118.518 8.55776 119.277 7.54089 120.159 6.62501C121.042 5.70913 122.015 4.92794 123.079 4.28142C124.157 3.62146 125.305 3.11638 126.525 2.76619C127.758 2.40253 129.037 2.2207 130.36 2.2207C132.087 2.2207 133.754 2.53048 135.364 3.15005C136.973 3.75615 138.426 4.64508 139.724 5.81685L136.765 10.8677C135.948 9.9518 134.981 9.25141 133.865 8.76652C132.749 8.2682 131.58 8.01901 130.36 8.01901C129.127 8.01901 127.972 8.26147 126.895 8.74632C125.818 9.23122 124.877 9.89116 124.072 10.7262C123.267 11.5478 122.632 12.5243 122.165 13.6557C121.697 14.7736 121.464 15.9656 121.464 17.2317C121.464 18.4977 121.697 19.6898 122.165 20.8077C122.632 21.9121 123.267 22.8818 124.072 23.7169C124.877 24.552 125.818 25.2119 126.895 25.6968C127.972 26.1817 129.127 26.4241 130.36 26.4241C131.58 26.4241 132.749 26.1817 133.865 25.6968C134.981 25.1985 135.948 24.4914 136.765 23.5755L139.724 28.6263ZM148.563 31.5962H142.976V2.62477H148.563V14.2214H159.718V2.62477H165.305V31.5962H159.718V20.0197H148.563V31.5962ZM186.934 20.0197V14.2214C186.934 13.4268 186.784 12.6792 186.486 11.9789C186.2 11.265 185.804 10.6455 185.298 10.1202C184.792 9.59487 184.195 9.18408 183.507 8.88776C182.832 8.57796 182.112 8.4231 181.346 8.4231C180.58 8.4231 179.854 8.57796 179.166 8.88776C178.491 9.18408 177.9 9.59487 177.394 10.1202C176.888 10.6455 176.486 11.265 176.188 11.9789C175.902 12.6792 175.759 13.4268 175.759 14.2214V20.0197H186.934ZM192.521 31.5962H186.934V25.7978H175.759V31.5962H170.191V14.2214C170.191 12.6186 170.483 11.1168 171.067 9.71611C171.651 8.30187 172.443 7.06946 173.442 6.01892C174.455 4.96834 175.636 4.13999 176.986 3.53391C178.348 2.92781 179.802 2.62477 181.346 2.62477C182.891 2.62477 184.338 2.92781 185.688 3.53391C187.05 4.13999 188.238 4.96834 189.25 6.01892C190.263 7.06946 191.061 8.30187 191.645 9.71611C192.229 11.1168 192.521 12.6186 192.521 14.2214V31.5962Z" fill="#FFF5A8" fill-opacity="0.98"/>
<path d="M40.5265 31.3738C40.2844 31.3738 40.0763 31.3542 39.9016 31.315C39.7269 31.2746 39.5831 31.2152 39.4696 31.1369C39.3554 31.0573 39.2684 30.9587 39.2097 30.8412C39.1282 30.7102 39.0658 30.5528 39.022 30.3691C38.9785 30.1842 38.943 29.97 38.9158 29.7263L39.0753 29.6969C39.0894 29.8243 39.1053 29.9424 39.1227 30.0514C39.1405 30.1591 39.1608 30.2577 39.1829 30.3471C39.2043 30.4365 39.2286 30.5167 39.2558 30.5877C39.2829 30.6575 39.3134 30.7181 39.3478 30.7695C39.3949 30.8503 39.4616 30.9195 39.5475 30.9771C39.6327 31.0346 39.7375 31.0805 39.8625 31.1148C39.9879 31.1491 40.134 31.1705 40.3014 31.1791V31.1644C40.2224 31.1191 40.1525 31.0603 40.0908 30.9881C40.0296 30.9146 39.9814 30.8301 39.9459 30.7346C39.9093 30.6391 39.8911 30.5344 39.8911 30.4206C39.8911 30.2528 39.9252 30.112 39.9937 29.9981C40.0608 29.883 40.1601 29.7961 40.2909 29.7373C40.4207 29.6785 40.5787 29.6492 40.7654 29.6492C40.9564 29.6492 41.1238 29.681 41.2677 29.7447C41.4105 29.8083 41.5215 29.9038 41.6005 30.0312C41.6784 30.1573 41.7175 30.3153 41.7175 30.505C41.7175 30.6593 41.6875 30.7916 41.6273 30.9018C41.5657 31.012 41.4816 31.102 41.3739 31.1718C41.2656 31.2403 41.1394 31.2912 40.9952 31.3242C40.8502 31.3572 40.694 31.3738 40.5265 31.3738ZM41.5617 30.4903C41.5617 30.3434 41.5305 30.2222 41.4678 30.1267C41.404 30.0312 41.3138 29.9602 41.1971 29.9136C41.0793 29.8671 40.9393 29.8439 40.7777 29.8439C40.5381 29.8439 40.3569 29.8947 40.2344 29.9963C40.1104 30.0979 40.0484 30.2467 40.0484 30.4426C40.0484 30.5565 40.0687 30.6599 40.1086 30.753C40.1488 30.8461 40.2043 30.9287 40.275 31.001C40.3446 31.072 40.425 31.1332 40.5156 31.1846C40.6468 31.1846 40.7748 31.1742 40.8998 31.1534C41.0238 31.1326 41.1358 31.0965 41.2362 31.045C41.3362 30.9936 41.416 30.9232 41.4751 30.8338C41.5327 30.7432 41.5617 30.6287 41.5617 30.4903ZM39.7248 28.4076C39.7248 28.1884 39.7777 28.0244 39.8839 27.9153C39.9901 27.8064 40.1594 27.7519 40.3917 27.7519H41.682V27.8951L41.3457 27.9282V27.9392C41.4178 27.9821 41.4819 28.0341 41.5385 28.0954C41.5939 28.1566 41.6378 28.2319 41.6697 28.3212C41.7016 28.4094 41.7175 28.5172 41.7175 28.6445C41.7175 28.7731 41.6969 28.8833 41.6556 28.9751C41.6142 29.0657 41.5541 29.1361 41.4751 29.1863C41.396 29.2353 41.2996 29.2598 41.1865 29.2598C40.9952 29.2598 40.8502 29.1778 40.7512 29.0137C40.6508 28.8496 40.5943 28.6139 40.5812 28.3066L40.5635 27.9356H40.4236C40.2268 27.9356 40.0861 27.976 40.0024 28.0568C39.9187 28.1376 39.877 28.257 39.877 28.4149C39.877 28.5178 39.8897 28.617 39.9158 28.7125C39.9404 28.8067 39.9767 28.9029 40.0238 29.0008L39.8752 29.0596C39.8313 28.9641 39.7954 28.8618 39.7672 28.7529C39.7389 28.6427 39.7248 28.5276 39.7248 28.4076ZM40.7034 27.9374L40.7175 28.2864C40.7291 28.5398 40.773 28.7327 40.8484 28.8649C40.9241 28.9971 41.0372 29.0633 41.1884 29.0633C41.3098 29.0633 41.4029 29.0241 41.4678 28.9457C41.5327 28.8661 41.5653 28.7559 41.5653 28.6151C41.5653 28.396 41.5051 28.2288 41.3848 28.1137C41.2645 27.9974 41.1003 27.9386 40.8926 27.9374H40.7034ZM39.7211 26.6518C39.7211 26.5146 39.7407 26.3977 39.7795 26.301C39.8183 26.2042 39.8752 26.1308 39.9495 26.0805C40.0227 26.0291 40.1115 26.0034 40.2166 26.0034C40.3275 26.0034 40.4196 26.034 40.4928 26.0952C40.5646 26.1564 40.616 26.2428 40.6468 26.3542H40.6574C40.6773 26.2612 40.7092 26.1834 40.753 26.1209C40.7965 26.0573 40.8513 26.0095 40.9176 25.9777C40.9825 25.9458 41.0571 25.9299 41.1423 25.9299C41.2601 25.9299 41.3623 25.9612 41.4482 26.0236C41.5345 26.0848 41.6012 26.1724 41.6483 26.2863C41.6943 26.4001 41.7175 26.5367 41.7175 26.6958C41.7175 26.784 41.7121 26.8673 41.7016 26.9456C41.6907 27.024 41.6762 27.095 41.6574 27.1587C41.6371 27.2211 41.6153 27.2756 41.5918 27.3221H41.4167C41.4627 27.2328 41.4986 27.136 41.5244 27.0319C41.5504 26.9266 41.5635 26.8146 41.5635 26.6958C41.5635 26.5832 41.5475 26.4834 41.5157 26.3965C41.4838 26.3095 41.4359 26.2409 41.3725 26.1908C41.3087 26.1405 41.2282 26.1154 41.1315 26.1154C41.0398 26.1154 40.9651 26.1381 40.9085 26.1834C40.8509 26.2287 40.8089 26.2954 40.7831 26.3836C40.7559 26.4718 40.7422 26.5807 40.7422 26.7105V26.9787H40.5881V26.7307C40.5881 26.5642 40.5595 26.4313 40.5015 26.3322C40.4424 26.233 40.3511 26.1834 40.2271 26.1834C40.113 26.1834 40.026 26.2244 39.9672 26.3065C39.9071 26.3873 39.877 26.5048 39.877 26.6591C39.877 26.7681 39.8893 26.8654 39.914 26.9511C39.9375 27.0368 39.9694 27.125 40.0097 27.2156L39.8592 27.2836C39.8179 27.1905 39.7849 27.0932 39.7599 26.9915C39.7342 26.8887 39.7211 26.7754 39.7211 26.6518ZM39.7248 24.7122C39.7248 24.4931 39.7777 24.329 39.8839 24.22C39.9901 24.111 40.1594 24.0566 40.3917 24.0566H41.682V24.1998L41.3457 24.2329V24.2439C41.4178 24.2867 41.4819 24.3388 41.5385 24.4C41.5939 24.4612 41.6378 24.5365 41.6697 24.6259C41.7016 24.7141 41.7175 24.8218 41.7175 24.9492C41.7175 25.0777 41.6969 25.1879 41.6556 25.2798C41.6142 25.3704 41.5541 25.4408 41.4751 25.491C41.396 25.5399 41.2996 25.5644 41.1865 25.5644C40.9952 25.5644 40.8502 25.4824 40.7512 25.3183C40.6508 25.1542 40.5943 24.9185 40.5812 24.6112L40.5635 24.2402H40.4236C40.2268 24.2402 40.0861 24.2806 40.0024 24.3614C39.9187 24.4422 39.877 24.5616 39.877 24.7196C39.877 24.8224 39.8897 24.9216 39.9158 25.0171C39.9404 25.1114 39.9767 25.2075 40.0238 25.3055L39.8752 25.3642C39.8313 25.2687 39.7954 25.1665 39.7672 25.0575C39.7389 24.9473 39.7248 24.8322 39.7248 24.7122ZM40.7034 24.2421L40.7175 24.591C40.7291 24.8445 40.773 25.0373 40.8484 25.1696C40.9241 25.3018 41.0372 25.3679 41.1884 25.3679C41.3098 25.3679 41.4029 25.3287 41.4678 25.2504C41.5327 25.1708 41.5653 25.0606 41.5653 24.9198C41.5653 24.7006 41.5051 24.5335 41.3848 24.4184C41.2645 24.302 41.1003 24.2433 40.8926 24.2421H40.7034ZM40.2271 20.9416C40.3489 20.9416 40.4442 20.9746 40.5138 21.0408C40.5834 21.1057 40.6309 21.192 40.6555 21.2998H40.6661C40.6849 21.1687 40.7328 21.0634 40.8096 20.9838C40.885 20.903 40.9937 20.8626 41.1351 20.8626C41.2471 20.8626 41.3438 20.8883 41.4254 20.9397C41.507 20.9912 41.57 21.0702 41.6146 21.1767C41.6595 21.282 41.682 21.4173 41.682 21.5826V22.4366H39.7581V21.6046C39.7581 21.4577 39.7766 21.3353 39.8132 21.2373C39.8484 21.1393 39.9009 21.0659 39.9705 21.0169C40.039 20.9667 40.1246 20.9416 40.2271 20.9416ZM41.1351 21.0554C40.997 21.0554 40.898 21.1038 40.8379 21.2006C40.7777 21.2973 40.7476 21.4393 40.7476 21.6267V22.2493H41.5298V21.6156C41.5298 21.4283 41.4979 21.2881 41.4341 21.195C41.3692 21.102 41.2695 21.0554 41.1351 21.0554ZM40.2413 21.1307C40.1398 21.1307 40.0604 21.1681 40.0024 21.2428C39.9433 21.3175 39.914 21.4442 39.914 21.623V22.2493H40.5899V21.6414C40.5899 21.465 40.5613 21.3359 40.5033 21.2538C40.4442 21.1718 40.3569 21.1307 40.2413 21.1307ZM39.7581 20.1224H41.682V20.3079H39.7581V20.1224ZM39.0466 20.2124C39.0466 20.1659 39.0604 20.1316 39.0876 20.1096C39.1133 20.0875 39.1488 20.0765 39.1938 20.0765C39.2384 20.0765 39.2739 20.0875 39.3 20.1096C39.3257 20.1316 39.3388 20.1659 39.3388 20.2124C39.3388 20.2565 39.3257 20.2896 39.3 20.3116C39.2739 20.3337 39.2384 20.3447 39.1938 20.3447C39.1488 20.3447 39.1133 20.3337 39.0876 20.3116C39.0604 20.2896 39.0466 20.2565 39.0466 20.2124ZM39.7581 18.0893H41.5244V17.8211H42.3333V18.0029H41.682V19.531H42.3333V19.711H41.5244V19.577C41.3747 19.4643 41.2076 19.37 41.0238 19.2941C40.8397 19.2182 40.6414 19.1606 40.429 19.1214C40.2155 19.0811 39.9919 19.0596 39.7581 19.0572V18.0893ZM39.9085 18.2711V18.8882C40.1198 18.898 40.3221 18.9225 40.5156 18.9617C40.7081 19.0009 40.889 19.0547 41.059 19.1233C41.2279 19.1919 41.383 19.2751 41.5244 19.3731V18.2711H39.9085ZM39.7581 15.8081H41.682V15.9936H39.9158V17.2132H41.682V17.4005H39.7581V15.8081ZM40.7175 13.4829C40.8661 13.4829 41.0017 13.5019 41.1246 13.5399C41.246 13.5778 41.3511 13.6341 41.4395 13.7088C41.528 13.7835 41.5965 13.8766 41.6447 13.988C41.6933 14.0982 41.7175 14.2268 41.7175 14.3737C41.7175 14.5133 41.694 14.6376 41.6465 14.7466C41.5983 14.8555 41.5298 14.948 41.4413 15.0239C41.3529 15.0986 41.2478 15.1555 41.1264 15.1947C41.0035 15.2339 40.8672 15.2535 40.7175 15.2535C40.5109 15.2535 40.3333 15.2179 40.1847 15.1469C40.035 15.0747 39.9205 14.9718 39.8415 14.8384C39.7614 14.7037 39.7211 14.5427 39.7211 14.3553C39.7211 14.1619 39.7636 14.0009 39.8484 13.8723C39.9325 13.7425 40.0492 13.6452 40.1989 13.5803C40.3489 13.5154 40.5218 13.4829 40.7175 13.4829ZM40.7175 15.0624C40.8861 15.0624 41.0336 15.0374 41.1601 14.9871C41.2862 14.937 41.3848 14.861 41.4555 14.7594C41.5262 14.6565 41.5617 14.5268 41.5617 14.37C41.5617 14.2096 41.5262 14.078 41.4555 13.9752C41.3848 13.8723 41.2855 13.7964 41.1583 13.7474C41.0307 13.6984 40.8839 13.6739 40.7175 13.6739C40.5559 13.6739 40.412 13.6972 40.2855 13.7438C40.1594 13.7903 40.0604 13.8637 39.9883 13.9641C39.9151 14.0645 39.8785 14.1955 39.8785 14.3572C39.8785 14.5886 39.9528 14.7643 40.1017 14.8843C40.2503 15.0031 40.4555 15.0624 40.7175 15.0624ZM39.7581 12.7758H40.4044C40.566 12.7758 40.6838 12.7342 40.7581 12.6509C40.8313 12.5677 40.8679 12.4458 40.8679 12.2854C40.8679 12.1483 40.8473 12.0253 40.806 11.9163C40.7646 11.8061 40.7092 11.7007 40.6396 11.6004H39.7581V11.4149H41.682V11.6004H40.7955C40.8661 11.7093 40.9216 11.8189 40.9618 11.9291C41.0017 12.0381 41.022 12.1667 41.022 12.3148C41.022 12.5267 40.9698 12.6876 40.8661 12.7979C40.761 12.9068 40.6142 12.9613 40.4254 12.9613H39.7581V12.7758ZM39.7581 10.5682H41.1405C41.1677 10.5682 41.1952 10.5688 41.2235 10.57C41.2518 10.57 41.2808 10.5706 41.3105 10.5718C41.3399 10.5718 41.3689 10.5725 41.3971 10.5737C41.4254 10.5749 41.4529 10.5767 41.4801 10.5792L39.7581 9.38718V9.15946H41.682V9.33576H40.2873C40.2521 9.33576 40.2155 9.33576 40.1778 9.33576C40.1387 9.33456 40.1003 9.33332 40.0626 9.33208C40.0238 9.33087 39.9872 9.32963 39.9528 9.32843L41.682 10.5259V10.7482H39.7581V10.5682ZM39.7581 8.30174H40.6008V7.04364H39.7581V6.85812H41.682V7.04364H40.7581V8.30174H41.682V8.48906H39.7581V8.30174ZM39.7581 5.10227V4.88738L40.6929 5.79103L41.682 4.83231V5.06187L40.707 6.00224H41.682V6.1896H39.7581V6.00224H40.6929L39.7581 5.10227ZM39.7581 4.79372V4.59722L40.9796 4.11233C41.0513 4.08295 41.118 4.05722 41.1793 4.03518C41.2395 4.01193 41.2949 3.99173 41.3457 3.97458C41.3953 3.95743 41.4406 3.94336 41.4819 3.93234V3.92132C41.4279 3.90296 41.358 3.87844 41.2732 3.84786C41.1869 3.81724 41.0916 3.78233 40.9865 3.74316L39.7581 3.26379V3.06543L42.043 3.97642C42.1539 4.02051 42.2478 4.06884 42.3243 4.1215C42.4022 4.17416 42.4606 4.236 42.4997 4.30702C42.5399 4.37804 42.5599 4.46372 42.5599 4.56415C42.5599 4.60944 42.5563 4.65048 42.5494 4.68719C42.5432 4.72394 42.5352 4.75945 42.5244 4.79372H42.3703C42.3797 4.76189 42.3877 4.72943 42.3935 4.69637C42.4004 4.6621 42.404 4.62475 42.404 4.58435C42.404 4.51454 42.3899 4.45454 42.3616 4.40437C42.3344 4.35291 42.292 4.30702 42.234 4.26662C42.1764 4.22618 42.1025 4.18823 42.0129 4.15272L41.6715 4.01682L39.7581 4.79372Z" fill="#FFF5A8" fill-opacity="0.98"/>
</g>
</g>
<defs>
<clipPath id="clip0_838_60">
<rect width="195" height="41" fill="white"/>
</clipPath>
</defs>
</svg>
