<svg width="28" height="28" viewBox="0 0 28 28" fill="none" xmlns="http://www.w3.org/2000/svg">
<path d="M21.3151 7.00004C22.4934 9.53171 22.2251 12.5184 20.9301 14.945C19.8334 16.9167 18.2584 18.585 16.9168 20.4167C16.3334 21.2334 15.7501 22.1084 15.3184 23.0534C15.1668 23.3684 15.0618 23.695 14.9451 24.0217C14.8284 24.3484 14.7234 24.675 14.6184 25.0017C14.5134 25.305 14.3851 25.6667 14.0001 25.6667C13.5451 25.6667 13.4168 25.1534 13.3234 24.8034C13.0434 23.9517 12.7634 23.135 12.3318 22.3534C11.8418 21.4317 11.2234 20.58 10.5934 19.7517L21.3151 7.00004ZM10.6401 9.82337L6.79011 14.3967C7.50178 15.9017 8.56345 17.185 9.57845 18.4684C9.82345 18.76 10.0684 19.0634 10.3018 19.3784L15.1668 13.615L15.1201 13.6267C13.4168 14.21 11.5268 13.3467 10.8501 11.6667C10.7568 11.4684 10.6868 11.235 10.6401 11.0017C10.5759 10.6155 10.5759 10.2213 10.6401 9.83504V9.82337ZM7.67678 5.39004L7.66511 5.40171C5.77511 7.79337 5.44845 11.1184 6.58011 13.93L11.2351 8.40004L11.1768 8.34171L7.67678 5.39004ZM16.5901 2.75337L12.8334 7.19837L12.8801 7.18671C14.4434 6.65004 16.1934 7.32671 16.9868 8.75004C17.1618 9.07671 17.3018 9.42671 17.3484 9.77671C17.4184 10.22 17.4418 10.535 17.3601 10.9667V10.9784L21.0934 6.54504C20.1176 4.77099 18.5164 3.42356 16.6018 2.76504L16.5901 2.75337ZM11.5384 8.03837L16.1001 2.61337L16.0534 2.60171C15.3768 2.42671 14.6884 2.33337 14.0001 2.33337C11.7018 2.33337 9.53178 3.32504 7.99178 5.02837L7.96845 5.04004L11.5384 8.03837Z" fill="#CDCAB3"/>
</svg>
